<?xml version="1.0" standalone="no"?>
<!DOCTYPE svg PUBLIC "-//W3C//DTD SVG 20010904//EN"
 "http://www.w3.org/TR/2001/REC-SVG-20010904/DTD/svg10.dtd">
<svg version="1.0" xmlns="http://www.w3.org/2000/svg"
 width="110.000000pt" height="50.000000pt" viewBox="0 0 407.000000 335.000000"
 preserveAspectRatio="xMidYMid meet">
<metadata>
Created by potrace 1.16, written by Peter Selinger 2001-2019
</metadata>
<g transform="translate(0.000000,335.000000) scale(0.100000,-0.100000)"
fill="#479173" stroke="none">
<path d="M3211 3304 c-131 -34 -218 -82 -291 -160 -81 -88 -101 -172 -61 -259
58 -126 220 -181 452 -155 60 6 132 18 161 26 29 7 58 14 64 14 23 0 74 -237
74 -341 0 -75 -33 -178 -73 -231 -72 -95 -260 -174 -577 -242 -611 -132 -711
-156 -806 -194 -161 -65 -257 -112 -494 -244 -268 -149 -345 -189 -465 -237
-88 -35 -93 -36 -220 -35 -152 2 -244 22 -372 83 -193 93 -328 238 -438 474
-44 94 -105 266 -105 295 0 10 -3 12 -9 6 -18 -18 -31 -322 -21 -466 16 -216
43 -321 126 -478 147 -280 479 -483 1011 -620 l91 -24 16 -83 c21 -103 21
-279 1 -353 -8 -30 -15 -58 -15 -62 0 -5 138 -8 306 -8 l306 0 -6 22 c-36 130
-29 219 26 359 l30 76 171 6 c107 3 217 13 292 26 134 24 323 85 428 138 l69
35 -6 -109 c-8 -124 -34 -245 -71 -332 -14 -33 -25 -63 -25 -66 0 -3 137 -5
305 -5 l305 0 0 33 c0 17 -9 109 -21 204 l-22 172 47 108 c62 144 87 244 93
382 l6 114 102 101 c259 256 415 622 456 1074 22 238 -12 464 -99 642 -80 167
-215 281 -384 326 -86 23 -247 17 -357 -12z"/>
<path d="M2813 593 c-7 -2 -13 -17 -13 -32 0 -17 -22 -61 -55 -112 l-55 -84
30 -27 c47 -43 66 -37 85 25 15 47 34 238 24 236 -2 0 -10 -3 -16 -6z"/>
<path d="M1044 433 c0 -82 -5 -111 -27 -173 -15 -41 -30 -83 -34 -93 -8 -26
57 -49 161 -55 69 -4 90 -2 97 9 18 29 7 273 -17 350 -3 10 -33 24 -83 37 -43
12 -82 22 -87 22 -5 0 -10 -44 -10 -97z"/>
</g>
</svg>
